<mxfile host="app.diagrams.net" modified="2023-04-20T08:50:18.245Z" agent="Mozilla/5.0 (Windows NT 10.0; Win64; x64) AppleWebKit/537.36 (KHTML, like Gecko) Chrome/112.0.0.0 Safari/537.36" etag="1k6SU65R4mHI2VQxBJI2" version="21.2.1" type="device">
  <diagram id="C5RBs43oDa-KdzZeNtuy" name="Page-1">
    <mxGraphModel dx="1434" dy="796" grid="1" gridSize="10" guides="1" tooltips="1" connect="1" arrows="1" fold="1" page="1" pageScale="1" pageWidth="827" pageHeight="1169" math="0" shadow="0">
      <root>
        <mxCell id="WIyWlLk6GJQsqaUBKTNV-0" />
        <mxCell id="WIyWlLk6GJQsqaUBKTNV-1" parent="WIyWlLk6GJQsqaUBKTNV-0" />
        <mxCell id="mJD61Lpo36U0DTu7W9R6-0" value="Pokemon" style="swimlane;fontStyle=1;align=center;verticalAlign=top;childLayout=stackLayout;horizontal=1;startSize=26;horizontalStack=0;resizeParent=1;resizeParentMax=0;resizeLast=0;collapsible=1;marginBottom=0;whiteSpace=wrap;html=1;" parent="WIyWlLk6GJQsqaUBKTNV-1" vertex="1">
          <mxGeometry x="40" y="121" width="160" height="448" as="geometry" />
        </mxCell>
        <mxCell id="mJD61Lpo36U0DTu7W9R6-1" value="-Id_pokemon&lt;br&gt;- nombre&lt;br&gt;- mote&amp;nbsp;&lt;br&gt;- vitalidad&lt;br&gt;- ataque&amp;nbsp;&lt;br&gt;- ataque&lt;br&gt;- defensa especial&amp;nbsp;&lt;br&gt;- velocidad&lt;br&gt;- estamina&amp;nbsp;&lt;br&gt;- nivel&amp;nbsp;&lt;br&gt;- movimiento1&lt;br&gt;- movimiento2&lt;br&gt;- movimiento3&lt;br&gt;- movimiento4&lt;br&gt;- sexo&lt;br&gt;- fertilidad&amp;nbsp;&lt;br&gt;- tipo&amp;nbsp;&lt;br&gt;- estado&amp;nbsp;&lt;br&gt;- objeto&amp;nbsp;&lt;br&gt;- num_pokedex" style="text;strokeColor=none;fillColor=none;align=left;verticalAlign=top;spacingLeft=4;spacingRight=4;overflow=hidden;rotatable=0;points=[[0,0.5],[1,0.5]];portConstraint=eastwest;whiteSpace=wrap;html=1;" parent="mJD61Lpo36U0DTu7W9R6-0" vertex="1">
          <mxGeometry y="26" width="160" height="314" as="geometry" />
        </mxCell>
        <mxCell id="mJD61Lpo36U0DTu7W9R6-2" value="" style="line;strokeWidth=1;fillColor=none;align=left;verticalAlign=middle;spacingTop=-1;spacingLeft=3;spacingRight=3;rotatable=0;labelPosition=right;points=[];portConstraint=eastwest;strokeColor=inherit;" parent="mJD61Lpo36U0DTu7W9R6-0" vertex="1">
          <mxGeometry y="340" width="160" height="8" as="geometry" />
        </mxCell>
        <mxCell id="mJD61Lpo36U0DTu7W9R6-3" value="+ subir nivel&lt;br&gt;+ atacar pokemon&lt;br&gt;+ comprobar ventaja&lt;br&gt;+ descansar&lt;br&gt;+ aprenderMovimiento()&amp;nbsp;" style="text;strokeColor=none;fillColor=none;align=left;verticalAlign=top;spacingLeft=4;spacingRight=4;overflow=hidden;rotatable=0;points=[[0,0.5],[1,0.5]];portConstraint=eastwest;whiteSpace=wrap;html=1;" parent="mJD61Lpo36U0DTu7W9R6-0" vertex="1">
          <mxGeometry y="348" width="160" height="100" as="geometry" />
        </mxCell>
        <mxCell id="mJD61Lpo36U0DTu7W9R6-4" value="Entrenador" style="swimlane;fontStyle=1;align=center;verticalAlign=top;childLayout=stackLayout;horizontal=1;startSize=26;horizontalStack=0;resizeParent=1;resizeParentMax=0;resizeLast=0;collapsible=1;marginBottom=0;whiteSpace=wrap;html=1;" parent="WIyWlLk6GJQsqaUBKTNV-1" vertex="1">
          <mxGeometry x="290" y="121" width="160" height="280" as="geometry" />
        </mxCell>
        <mxCell id="mJD61Lpo36U0DTu7W9R6-5" value="- Id_entrenador&lt;br&gt;- nombre&lt;br&gt;- pokedollar&amp;nbsp;&lt;br&gt;- equipo&amp;nbsp;&lt;br&gt;- pokemon_caja&lt;br&gt;- pokedex&amp;nbsp;&lt;br&gt;- objeto&amp;nbsp;" style="text;strokeColor=none;fillColor=none;align=left;verticalAlign=top;spacingLeft=4;spacingRight=4;overflow=hidden;rotatable=0;points=[[0,0.5],[1,0.5]];portConstraint=eastwest;whiteSpace=wrap;html=1;" parent="mJD61Lpo36U0DTu7W9R6-4" vertex="1">
          <mxGeometry y="26" width="160" height="94" as="geometry" />
        </mxCell>
        <mxCell id="mJD61Lpo36U0DTu7W9R6-6" value="" style="line;strokeWidth=1;fillColor=none;align=left;verticalAlign=middle;spacingTop=-1;spacingLeft=3;spacingRight=3;rotatable=0;labelPosition=right;points=[];portConstraint=eastwest;strokeColor=inherit;" parent="mJD61Lpo36U0DTu7W9R6-4" vertex="1">
          <mxGeometry y="120" width="160" height="60" as="geometry" />
        </mxCell>
        <mxCell id="mJD61Lpo36U0DTu7W9R6-7" value="+ moverPokemonCaja&lt;br&gt;+ moverPokemonEquipo&amp;nbsp;&lt;br&gt;+ entrenar&amp;nbsp;&amp;nbsp;&lt;br&gt;+ capturar&amp;nbsp;&lt;br&gt;+ combatir&lt;br&gt;+ criar" style="text;strokeColor=none;fillColor=none;align=left;verticalAlign=top;spacingLeft=4;spacingRight=4;overflow=hidden;rotatable=0;points=[[0,0.5],[1,0.5]];portConstraint=eastwest;whiteSpace=wrap;html=1;" parent="mJD61Lpo36U0DTu7W9R6-4" vertex="1">
          <mxGeometry y="180" width="160" height="100" as="geometry" />
        </mxCell>
        <mxCell id="vsb9D8uKJYlQ34apMzGm-0" value="Movimiento&amp;nbsp;" style="swimlane;fontStyle=1;align=center;verticalAlign=top;childLayout=stackLayout;horizontal=1;startSize=26;horizontalStack=0;resizeParent=1;resizeParentMax=0;resizeLast=0;collapsible=1;marginBottom=0;whiteSpace=wrap;html=1;" parent="WIyWlLk6GJQsqaUBKTNV-1" vertex="1">
          <mxGeometry x="1060" y="110" width="160" height="200" as="geometry" />
        </mxCell>
        <mxCell id="vsb9D8uKJYlQ34apMzGm-1" value="- Id_movimiento&lt;br&gt;- Movimiento1&lt;br&gt;- Movimiento2&lt;br&gt;- Movimiento3&lt;br&gt;- Movimiento 4" style="text;strokeColor=none;fillColor=none;align=left;verticalAlign=top;spacingLeft=4;spacingRight=4;overflow=hidden;rotatable=0;points=[[0,0.5],[1,0.5]];portConstraint=eastwest;whiteSpace=wrap;html=1;" parent="vsb9D8uKJYlQ34apMzGm-0" vertex="1">
          <mxGeometry y="26" width="160" height="94" as="geometry" />
        </mxCell>
        <mxCell id="vsb9D8uKJYlQ34apMzGm-2" value="" style="line;strokeWidth=1;fillColor=none;align=left;verticalAlign=middle;spacingTop=-1;spacingLeft=3;spacingRight=3;rotatable=0;labelPosition=right;points=[];portConstraint=eastwest;strokeColor=inherit;" parent="vsb9D8uKJYlQ34apMzGm-0" vertex="1">
          <mxGeometry y="120" width="160" height="8" as="geometry" />
        </mxCell>
        <mxCell id="vsb9D8uKJYlQ34apMzGm-3" value="+ movimientoAtaque&lt;br&gt;+ movimientoEstado&lt;br&gt;+ movimientoMejora" style="text;strokeColor=none;fillColor=none;align=left;verticalAlign=top;spacingLeft=4;spacingRight=4;overflow=hidden;rotatable=0;points=[[0,0.5],[1,0.5]];portConstraint=eastwest;whiteSpace=wrap;html=1;" parent="vsb9D8uKJYlQ34apMzGm-0" vertex="1">
          <mxGeometry y="128" width="160" height="72" as="geometry" />
        </mxCell>
        <mxCell id="vsb9D8uKJYlQ34apMzGm-4" value="Combate&amp;nbsp;" style="swimlane;fontStyle=1;align=center;verticalAlign=top;childLayout=stackLayout;horizontal=1;startSize=26;horizontalStack=0;resizeParent=1;resizeParentMax=0;resizeLast=0;collapsible=1;marginBottom=0;whiteSpace=wrap;html=1;" parent="WIyWlLk6GJQsqaUBKTNV-1" vertex="1">
          <mxGeometry x="510" y="121" width="160" height="228" as="geometry" />
        </mxCell>
        <mxCell id="vsb9D8uKJYlQ34apMzGm-5" value="+ Id_Combate&lt;br&gt;+ Ganador&lt;br&gt;+ Jugador&lt;br&gt;+ Turno&lt;br&gt;+ NumeroKo&lt;br&gt;+ NumerokoRival" style="text;strokeColor=none;fillColor=none;align=left;verticalAlign=top;spacingLeft=4;spacingRight=4;overflow=hidden;rotatable=0;points=[[0,0.5],[1,0.5]];portConstraint=eastwest;whiteSpace=wrap;html=1;" parent="vsb9D8uKJYlQ34apMzGm-4" vertex="1">
          <mxGeometry y="26" width="160" height="94" as="geometry" />
        </mxCell>
        <mxCell id="vsb9D8uKJYlQ34apMzGm-6" value="" style="line;strokeWidth=1;fillColor=none;align=left;verticalAlign=middle;spacingTop=-1;spacingLeft=3;spacingRight=3;rotatable=0;labelPosition=right;points=[];portConstraint=eastwest;strokeColor=inherit;" parent="vsb9D8uKJYlQ34apMzGm-4" vertex="1">
          <mxGeometry y="120" width="160" height="8" as="geometry" />
        </mxCell>
        <mxCell id="vsb9D8uKJYlQ34apMzGm-7" value="+ Turno" style="text;strokeColor=none;fillColor=none;align=left;verticalAlign=top;spacingLeft=4;spacingRight=4;overflow=hidden;rotatable=0;points=[[0,0.5],[1,0.5]];portConstraint=eastwest;whiteSpace=wrap;html=1;" parent="vsb9D8uKJYlQ34apMzGm-4" vertex="1">
          <mxGeometry y="128" width="160" height="100" as="geometry" />
        </mxCell>
        <mxCell id="vsb9D8uKJYlQ34apMzGm-8" value="Tipo" style="swimlane;fontStyle=1;align=center;verticalAlign=top;childLayout=stackLayout;horizontal=1;startSize=26;horizontalStack=0;resizeParent=1;resizeParentMax=0;resizeLast=0;collapsible=1;marginBottom=0;whiteSpace=wrap;html=1;" parent="WIyWlLk6GJQsqaUBKTNV-1" vertex="1">
          <mxGeometry x="510" y="370" width="160" height="98" as="geometry" />
        </mxCell>
        <mxCell id="vsb9D8uKJYlQ34apMzGm-9" value="+ Tipo1&lt;br&gt;+ Tipo2" style="text;strokeColor=none;fillColor=none;align=left;verticalAlign=top;spacingLeft=4;spacingRight=4;overflow=hidden;rotatable=0;points=[[0,0.5],[1,0.5]];portConstraint=eastwest;whiteSpace=wrap;html=1;" parent="vsb9D8uKJYlQ34apMzGm-8" vertex="1">
          <mxGeometry y="26" width="160" height="64" as="geometry" />
        </mxCell>
        <mxCell id="vsb9D8uKJYlQ34apMzGm-10" value="" style="line;strokeWidth=1;fillColor=none;align=left;verticalAlign=middle;spacingTop=-1;spacingLeft=3;spacingRight=3;rotatable=0;labelPosition=right;points=[];portConstraint=eastwest;strokeColor=inherit;" parent="vsb9D8uKJYlQ34apMzGm-8" vertex="1">
          <mxGeometry y="90" width="160" height="8" as="geometry" />
        </mxCell>
        <mxCell id="6isArAR9P57hPCIidCAO-0" value="Turno" style="swimlane;fontStyle=0;childLayout=stackLayout;horizontal=1;startSize=26;fillColor=none;horizontalStack=0;resizeParent=1;resizeParentMax=0;resizeLast=0;collapsible=1;marginBottom=0;whiteSpace=wrap;html=1;" parent="WIyWlLk6GJQsqaUBKTNV-1" vertex="1">
          <mxGeometry x="730" y="121" width="170" height="104" as="geometry" />
        </mxCell>
        <mxCell id="6isArAR9P57hPCIidCAO-1" value="+ Id_Turno" style="text;strokeColor=none;fillColor=none;align=left;verticalAlign=top;spacingLeft=4;spacingRight=4;overflow=hidden;rotatable=0;points=[[0,0.5],[1,0.5]];portConstraint=eastwest;whiteSpace=wrap;html=1;" parent="6isArAR9P57hPCIidCAO-0" vertex="1">
          <mxGeometry y="26" width="170" height="26" as="geometry" />
        </mxCell>
        <mxCell id="6isArAR9P57hPCIidCAO-2" value="+ field: type" style="text;strokeColor=none;fillColor=none;align=left;verticalAlign=top;spacingLeft=4;spacingRight=4;overflow=hidden;rotatable=0;points=[[0,0.5],[1,0.5]];portConstraint=eastwest;whiteSpace=wrap;html=1;" parent="6isArAR9P57hPCIidCAO-0" vertex="1">
          <mxGeometry y="52" width="170" height="26" as="geometry" />
        </mxCell>
        <mxCell id="6isArAR9P57hPCIidCAO-3" value="+ field: type" style="text;strokeColor=none;fillColor=none;align=left;verticalAlign=top;spacingLeft=4;spacingRight=4;overflow=hidden;rotatable=0;points=[[0,0.5],[1,0.5]];portConstraint=eastwest;whiteSpace=wrap;html=1;" parent="6isArAR9P57hPCIidCAO-0" vertex="1">
          <mxGeometry y="78" width="170" height="26" as="geometry" />
        </mxCell>
        <mxCell id="6isArAR9P57hPCIidCAO-4" value="Objetos" style="swimlane;fontStyle=0;childLayout=stackLayout;horizontal=1;startSize=26;fillColor=none;horizontalStack=0;resizeParent=1;resizeParentMax=0;resizeLast=0;collapsible=1;marginBottom=0;whiteSpace=wrap;html=1;" parent="WIyWlLk6GJQsqaUBKTNV-1" vertex="1">
          <mxGeometry x="730" y="245" width="170" height="104" as="geometry" />
        </mxCell>
        <mxCell id="6isArAR9P57hPCIidCAO-5" value="+ Id_Objeto" style="text;strokeColor=none;fillColor=none;align=left;verticalAlign=top;spacingLeft=4;spacingRight=4;overflow=hidden;rotatable=0;points=[[0,0.5],[1,0.5]];portConstraint=eastwest;whiteSpace=wrap;html=1;" parent="6isArAR9P57hPCIidCAO-4" vertex="1">
          <mxGeometry y="26" width="170" height="26" as="geometry" />
        </mxCell>
        <mxCell id="6isArAR9P57hPCIidCAO-6" value="+ field: type" style="text;strokeColor=none;fillColor=none;align=left;verticalAlign=top;spacingLeft=4;spacingRight=4;overflow=hidden;rotatable=0;points=[[0,0.5],[1,0.5]];portConstraint=eastwest;whiteSpace=wrap;html=1;" parent="6isArAR9P57hPCIidCAO-4" vertex="1">
          <mxGeometry y="52" width="170" height="26" as="geometry" />
        </mxCell>
        <mxCell id="6isArAR9P57hPCIidCAO-7" value="+ field: type" style="text;strokeColor=none;fillColor=none;align=left;verticalAlign=top;spacingLeft=4;spacingRight=4;overflow=hidden;rotatable=0;points=[[0,0.5],[1,0.5]];portConstraint=eastwest;whiteSpace=wrap;html=1;" parent="6isArAR9P57hPCIidCAO-4" vertex="1">
          <mxGeometry y="78" width="170" height="26" as="geometry" />
        </mxCell>
        <mxCell id="6isArAR9P57hPCIidCAO-8" value="Captura" style="swimlane;fontStyle=0;childLayout=stackLayout;horizontal=1;startSize=26;fillColor=none;horizontalStack=0;resizeParent=1;resizeParentMax=0;resizeLast=0;collapsible=1;marginBottom=0;whiteSpace=wrap;html=1;" parent="WIyWlLk6GJQsqaUBKTNV-1" vertex="1">
          <mxGeometry x="730" y="370" width="170" height="90" as="geometry" />
        </mxCell>
        <mxCell id="6isArAR9P57hPCIidCAO-9" value="+ Captura" style="text;strokeColor=none;fillColor=none;align=left;verticalAlign=top;spacingLeft=4;spacingRight=4;overflow=hidden;rotatable=0;points=[[0,0.5],[1,0.5]];portConstraint=eastwest;whiteSpace=wrap;html=1;" parent="6isArAR9P57hPCIidCAO-8" vertex="1">
          <mxGeometry y="26" width="170" height="26" as="geometry" />
        </mxCell>
        <mxCell id="6isArAR9P57hPCIidCAO-10" value="+ ListaPruebas" style="text;strokeColor=none;fillColor=none;align=left;verticalAlign=top;spacingLeft=4;spacingRight=4;overflow=hidden;rotatable=0;points=[[0,0.5],[1,0.5]];portConstraint=eastwest;whiteSpace=wrap;html=1;" parent="6isArAR9P57hPCIidCAO-8" vertex="1">
          <mxGeometry y="52" width="170" height="38" as="geometry" />
        </mxCell>
      </root>
    </mxGraphModel>
  </diagram>
</mxfile>
